<?xml version="1.0" standalone="no"?>
<!DOCTYPE svg PUBLIC "-//W3C//DTD SVG 20010904//EN"
 "http://www.w3.org/TR/2001/REC-SVG-20010904/DTD/svg10.dtd">
<svg version="1.0" xmlns="http://www.w3.org/2000/svg"
 width="172.000000pt" height="172.000000pt" viewBox="0 0 172.000000 172.000000"
 preserveAspectRatio="xMidYMid meet">
<metadata>
Created by potrace 1.14, written by Peter Selinger 2001-2017
</metadata>
<g transform="translate(0.000000,172.000000) scale(0.100000,-0.100000)"
fill="#000000" stroke="none">
<path d="M671 989 c-66 -67 -121 -125 -121 -130 0 -10 29 -39 39 -39 4 0 56
47 115 105 l107 105 104 -105 c58 -58 109 -105 114 -105 12 0 41 28 41 39 0
16 -244 251 -260 251 -10 0 -72 -55 -139 -121z"/>
<path d="M725 910 l-80 -80 0 -101 c-1 -120 1 -123 98 -110 4 1 7 39 7 84 0
95 13 117 64 111 40 -4 50 -26 52 -114 1 -41 2 -78 3 -81 2 -10 85 -5 93 6 4
6 8 53 8 107 l0 96 -59 59 c-32 32 -69 68 -83 80 l-24 23 -79 -80z"/>
<path d="M200 724 c0 -98 2 -115 14 -105 10 9 20 9 38 1 38 -18 75 2 87 45 11
39 7 60 -17 88 -17 20 -62 23 -80 5 -9 -9 -12 -2 -12 35 0 35 -4 47 -15 47
-12 0 -15 -20 -15 -116z m100 11 c31 -38 1 -112 -38 -98 -24 9 -32 24 -32 60
0 46 44 69 70 38z"/>
<path d="M1212 728 c2 -67 7 -113 13 -113 6 0 11 46 13 113 2 96 0 112 -13
112 -13 0 -15 -16 -13 -112z"/>
<path d="M0 756 c0 -41 4 -86 10 -100 21 -56 106 -60 132 -5 21 41 19 174 -2
174 -11 0 -15 -15 -15 -70 -1 -38 -4 -80 -8 -91 -11 -30 -44 -37 -68 -13 -16
16 -19 33 -19 99 0 64 -3 80 -15 80 -12 0 -15 -15 -15 -74z"/>
<path d="M1071 816 c-56 -32 -70 -125 -24 -170 29 -30 56 -39 93 -32 14 2 28
5 33 5 4 1 7 6 7 11 0 6 -20 10 -44 10 -66 0 -94 37 -82 106 8 40 44 63 94 58
22 -2 32 1 29 9 -5 17 -78 19 -106 3z"/>
<path d="M390 750 c-11 -11 -21 -27 -21 -35 -1 -8 -2 -21 -3 -27 -7 -44 56
-88 104 -73 30 10 24 26 -7 21 -30 -5 -60 11 -65 35 -2 11 9 14 47 14 57 0 69
18 41 60 -20 31 -68 33 -96 5z m64 -6 c33 -13 17 -34 -24 -34 -38 0 -39 1 -28
20 13 21 26 24 52 14z"/>
<path d="M532 695 c0 -73 9 -98 24 -73 4 7 7 28 6 46 -3 37 23 87 38 77 6 -4
10 1 10 9 0 21 -19 20 -42 -1 -18 -16 -18 -16 -12 0 4 11 1 17 -9 17 -12 0
-15 -14 -15 -75z"/>
<path d="M1292 746 c-11 -14 -18 -37 -16 -53 1 -15 2 -34 3 -40 1 -15 53 -43
79 -43 11 0 25 7 32 15 10 12 7 14 -24 13 -38 -1 -52 7 -58 32 -2 11 8 15 42
16 62 3 60 2 60 24 0 55 -83 80 -118 36z m78 -11 c18 -21 9 -27 -36 -23 -36 3
-37 4 -20 21 21 21 40 22 56 2z"/>
<path d="M1447 763 c-15 -14 -6 -22 21 -17 30 5 58 -8 48 -24 -3 -5 -21 -13
-40 -16 -34 -7 -46 -21 -46 -56 0 -26 17 -34 72 -35 l48 0 0 55 c0 70 -19 100
-64 100 -18 0 -36 -3 -39 -7z m73 -92 c0 -36 -52 -52 -58 -17 -4 20 13 36 41
36 10 0 17 -8 17 -19z"/>
<path d="M1592 693 c3 -90 21 -102 26 -18 2 43 7 57 23 66 31 16 48 -5 51 -67
4 -71 22 -70 26 2 2 42 -1 61 -14 75 -19 21 -54 25 -71 8 -8 -8 -13 -8 -17 0
-18 29 -27 6 -24 -66z"/>
</g>
</svg>
